<svg xmlns="http://www.w3.org/2000/svg" viewBox="0 0 400 300" fill="none">
  <!-- MPC body -->
  <rect x="20" y="20" width="360" height="260" rx="16" ry="16" fill="#1a1a1a" stroke="#333" stroke-width="2"/>
  <!-- Screen -->
  <rect x="40" y="35" width="200" height="120" rx="6" fill="#0d1117" stroke="#444" stroke-width="1.5"/>
  <rect x="45" y="40" width="190" height="110" rx="4" fill="#1a2744"/>
  <text x="140" y="100" text-anchor="middle" fill="#4af" font-size="11" font-family="monospace">MPC</text>
  <!-- Pads 4x4 -->
  <rect x="260" y="35" width="50" height="50" rx="5" fill="#222" stroke="#555" stroke-width="1.5"/>
  <rect x="318" y="35" width="50" height="50" rx="5" fill="#222" stroke="#555" stroke-width="1.5"/>
  <rect x="260" y="93" width="50" height="50" rx="5" fill="#222" stroke="#555" stroke-width="1.5"/>
  <rect x="318" y="93" width="50" height="50" rx="5" fill="#c00" stroke="#e00" stroke-width="1.5"/>
  <!-- Bottom pads 4x4 -->
  <rect x="40" y="175" width="45" height="45" rx="5" fill="#222" stroke="#555" stroke-width="1.5"/>
  <rect x="93" y="175" width="45" height="45" rx="5" fill="#222" stroke="#555" stroke-width="1.5"/>
  <rect x="146" y="175" width="45" height="45" rx="5" fill="#222" stroke="#555" stroke-width="1.5"/>
  <rect x="199" y="175" width="45" height="45" rx="5" fill="#222" stroke="#555" stroke-width="1.5"/>
  <rect x="40" y="228" width="45" height="45" rx="5" fill="#222" stroke="#555" stroke-width="1.5"/>
  <rect x="93" y="228" width="45" height="45" rx="5" fill="#222" stroke="#555" stroke-width="1.5"/>
  <rect x="146" y="228" width="45" height="45" rx="5" fill="#222" stroke="#555" stroke-width="1.5"/>
  <rect x="199" y="228" width="45" height="45" rx="5" fill="#c00" stroke="#e00" stroke-width="1.5"/>
  <!-- Knobs -->
  <circle cx="275" cy="185" r="16" fill="#2a2a2a" stroke="#555" stroke-width="1.5"/>
  <circle cx="320" cy="185" r="16" fill="#2a2a2a" stroke="#555" stroke-width="1.5"/>
  <circle cx="365" cy="185" r="16" fill="#2a2a2a" stroke="#555" stroke-width="1.5"/>
  <circle cx="275" cy="240" r="16" fill="#2a2a2a" stroke="#555" stroke-width="1.5"/>
  <circle cx="320" cy="240" r="16" fill="#2a2a2a" stroke="#555" stroke-width="1.5"/>
  <circle cx="365" cy="240" r="16" fill="#2a2a2a" stroke="#555" stroke-width="1.5"/>
  <!-- AKAI text -->
  <text x="200" y="165" text-anchor="middle" fill="#888" font-size="9" font-family="Arial" letter-spacing="4">AKAI professional</text>
</svg>
